<svg viewBox="0 0 2000 1000" xmlns="http://www.w3.org/2000/svg"><mask id="b" x="0" y="0" width="2000" height="1000"><path fill="url(#a)" d="M0 0h2000v1000H0z"/></mask><path fill="#fff" d="M0 0h2000v1000H0z"/><g style="transform-origin:center center" stroke="#ddd" stroke-width="2" mask="url(#b)"><path fill="none" d="M0 0h100v100H0zM100 0h100v100H100zM200 0h100v100H200z"/><path fill="#dddddd90" d="M300 0h100v100H300z"/><path fill="#ddddddb4" d="M400 0h100v100H400z"/><path fill="none" d="M500 0h100v100H500zM600 0h100v100H600zM700 0h100v100H700zM800 0h100v100H800zM900 0h100v100H900zM1000 0h100v100h-100zM1100 0h100v100h-100z"/><path fill="#dddddd26" d="M1200 0h100v100h-100z"/><path fill="#dddddd1e" d="M1300 0h100v100h-100z"/><path fill="none" d="M1400 0h100v100h-100z"/><path fill="#dddddd60" d="M1500 0h100v100h-100z"/><path fill="#dddddd63" d="M1600 0h100v100h-100z"/><path fill="none" d="M1700 0h100v100h-100zM1800 0h100v100h-100zM1900 0h100v100h-100z"/><path fill="#dddddd3a" d="M0 100h100v100H0z"/><path fill="none" d="M100 100h100v100H100zM200 100h100v100H200zM300 100h100v100H300zM400 100h100v100H400zM500 100h100v100H500zM600 100h100v100H600z"/><path fill="#ddddddda" d="M700 100h100v100H700z"/><path fill="none" d="M800 100h100v100H800zM900 100h100v100H900zM1000 100h100v100h-100zM1100 100h100v100h-100zM1200 100h100v100h-100zM1300 100h100v100h-100zM1400 100h100v100h-100zM1500 100h100v100h-100z"/><path fill="#dddddd61" d="M1600 100h100v100h-100z"/><path fill="none" d="M1700 100h100v100h-100zM1800 100h100v100h-100zM1900 100h100v100h-100zM0 200h100v100H0z"/><path fill="#ddddddc4" d="M100 200h100v100H100z"/><path fill="#dddddd4b" d="M200 200h100v100H200z"/><path fill="#ddddddbb" d="M300 200h100v100H300z"/><path fill="#dddddd80" d="M400 200h100v100H400z"/><path fill="none" d="M500 200h100v100H500zM600 200h100v100H600zM700 200h100v100H700zM800 200h100v100H800zM900 200h100v100H900zM1000 200h100v100h-100zM1100 200h100v100h-100zM1200 200h100v100h-100zM1300 200h100v100h-100zM1400 200h100v100h-100z"/><path fill="#dddddda8" d="M1500 200h100v100h-100z"/><path fill="none" d="M1600 200h100v100h-100zM1700 200h100v100h-100zM1800 200h100v100h-100zM1900 200h100v100h-100zM0 300h100v100H0zM100 300h100v100H100zM200 300h100v100H200zM300 300h100v100H300z"/><path fill="#ddddddd7" d="M400 300h100v100H400z"/><path fill="none" d="M500 300h100v100H500zM600 300h100v100H600zM700 300h100v100H700zM800 300h100v100H800z"/><path fill="#dddddd8d" d="M900 300h100v100H900z"/><path fill="none" d="M1000 300h100v100h-100zM1100 300h100v100h-100zM1200 300h100v100h-100z"/><path fill="#dddddddb" d="M1300 300h100v100h-100z"/><path fill="none" d="M1400 300h100v100h-100zM1500 300h100v100h-100zM1600 300h100v100h-100zM1700 300h100v100h-100z"/><path fill="#ddddddbc" d="M1800 300h100v100h-100z"/><path fill="#ddddddba" d="M1900 300h100v100h-100z"/><path fill="none" d="M0 400h100v100H0zM100 400h100v100H100zM200 400h100v100H200zM300 400h100v100H300zM400 400h100v100H400zM500 400h100v100H500zM600 400h100v100H600zM700 400h100v100H700zM800 400h100v100H800z"/><path fill="#dddddd63" d="M900 400h100v100H900z"/><path fill="#dddddda3" d="M1000 400h100v100h-100z"/><path fill="#dddddd36" d="M1100 400h100v100h-100z"/><path fill="none" d="M1200 400h100v100h-100zM1300 400h100v100h-100z"/><path fill="#dddddd4f" d="M1400 400h100v100h-100z"/><path fill="none" d="M1500 400h100v100h-100z"/><path fill="#dddddd1a" d="M1600 400h100v100h-100z"/><path fill="none" d="M1700 400h100v100h-100zM1800 400h100v100h-100z"/><path fill="#dddddd30" d="M1900 400h100v100h-100z"/><path fill="none" d="M0 500h100v100H0zM100 500h100v100H100zM200 500h100v100H200zM300 500h100v100H300zM400 500h100v100H400zM500 500h100v100H500zM600 500h100v100H600zM700 500h100v100H700zM800 500h100v100H800zM900 500h100v100H900z"/><path fill="#dddddd3a" d="M1000 500h100v100h-100z"/><path fill="none" d="M1100 500h100v100h-100z"/><path fill="#dddddd57" d="M1200 500h100v100h-100z"/><path fill="none" d="M1300 500h100v100h-100z"/><path fill="#dddddd3c" d="M1400 500h100v100h-100z"/><path fill="none" d="M1500 500h100v100h-100z"/><path fill="#dddddda2" d="M1600 500h100v100h-100z"/><path fill="#dddddd3e" d="M1700 500h100v100h-100z"/><path fill="none" d="M1800 500h100v100h-100zM1900 500h100v100h-100zM0 600h100v100H0zM100 600h100v100H100z"/><path fill="#dddddd72" d="M200 600h100v100H200z"/><path fill="#dddddd31" d="M300 600h100v100H300z"/><path fill="none" d="M400 600h100v100H400zM500 600h100v100H500zM600 600h100v100H600zM700 600h100v100H700z"/><path fill="#ddddddcc" d="M800 600h100v100H800z"/><path fill="#dddddd81" d="M900 600h100v100H900z"/><path fill="none" d="M1000 600h100v100h-100zM1100 600h100v100h-100z"/><path fill="#dddddd15" d="M1200 600h100v100h-100z"/><path fill="none" d="M1300 600h100v100h-100zM1400 600h100v100h-100z"/><path fill="#dddddd55" d="M1500 600h100v100h-100z"/><path fill="none" d="M1600 600h100v100h-100zM1700 600h100v100h-100zM1800 600h100v100h-100zM1900 600h100v100h-100z"/><path fill="#ddddddb9" d="M0 700h100v100H0z"/><path fill="none" d="M100 700h100v100H100z"/><path fill="#dddddd1a" d="M200 700h100v100H200z"/><path fill="#ddddddc3" d="M300 700h100v100H300z"/><path fill="none" d="M400 700h100v100H400zM500 700h100v100H500zM600 700h100v100H600zM700 700h100v100H700z"/><path fill="#dddddd19" d="M800 700h100v100H800z"/><path fill="none" d="M900 700h100v100H900z"/><path fill="#dddddde2" d="M1000 700h100v100h-100z"/><path fill="#ddddddb1" d="M1100 700h100v100h-100z"/><path fill="none" d="M1200 700h100v100h-100zM1300 700h100v100h-100z"/><path fill="#dddddd78" d="M1400 700h100v100h-100z"/><path fill="none" d="M1500 700h100v100h-100zM1600 700h100v100h-100z"/><path fill="#ddddddf5" d="M1700 700h100v100h-100z"/><path fill="none" d="M1800 700h100v100h-100zM1900 700h100v100h-100zM0 800h100v100H0zM100 800h100v100H100zM200 800h100v100H200z"/><path fill="#ddddddeb" d="M300 800h100v100H300z"/><path fill="#dddddd11" d="M400 800h100v100H400z"/><path fill="none" d="M500 800h100v100H500zM600 800h100v100H600z"/><path fill="#dddddd95" d="M700 800h100v100H700z"/><path fill="none" d="M800 800h100v100H800z"/><path fill="#dddddd8f" d="M900 800h100v100H900z"/><path fill="none" d="M1000 800h100v100h-100zM1100 800h100v100h-100zM1200 800h100v100h-100zM1300 800h100v100h-100zM1400 800h100v100h-100zM1500 800h100v100h-100z"/><path fill="#dddddd31" d="M1600 800h100v100h-100z"/><path fill="#ddddddf6" d="M1700 800h100v100h-100z"/><path fill="none" d="M1800 800h100v100h-100z"/><path fill="#ddddddb7" d="M1900 800h100v100h-100z"/><path fill="#ddddddfd" d="M0 900h100v100H0z"/><path fill="none" d="M100 900h100v100H100zM200 900h100v100H200z"/><path fill="#dddddd12" d="M300 900h100v100H300z"/><path fill="none" d="M400 900h100v100H400zM500 900h100v100H500zM600 900h100v100H600zM700 900h100v100H700zM800 900h100v100H800zM900 900h100v100H900z"/><path fill="#dddddd7c" d="M1000 900h100v100h-100z"/><path fill="none" d="M1100 900h100v100h-100zM1200 900h100v100h-100zM1300 900h100v100h-100zM1400 900h100v100h-100zM1500 900h100v100h-100zM1600 900h100v100h-100zM1700 900h100v100h-100zM1800 900h100v100h-100zM1900 900h100v100h-100z"/></g><defs><radialGradient id="a"><stop offset="0" stop-color="#fff"/><stop offset="1" stop-color="#fff" stop-opacity="0"/></radialGradient></defs></svg>