<svg viewBox="0 0 2000 1000" xmlns="http://www.w3.org/2000/svg"><mask id="b" x="0" y="0" width="2000" height="1000"><path fill="url(#a)" d="M0 0h2000v1000H0z"/></mask><path d="M0 0h2000v1000H0z"/><g style="transform-origin:center center" stroke="#222" stroke-width="2" mask="url(#b)"><path fill="none" d="M0 0h100v100H0zM100 0h100v100H100z"/><path fill="#2222227e" d="M200 0h100v100H200z"/><path fill="#222222db" d="M300 0h100v100H300z"/><path fill="none" d="M400 0h100v100H400zM500 0h100v100H500zM600 0h100v100H600zM700 0h100v100H700zM800 0h100v100H800zM900 0h100v100H900zM1000 0h100v100h-100z"/><path fill="#222222b3" d="M1100 0h100v100h-100z"/><path fill="#2222228a" d="M1200 0h100v100h-100z"/><path fill="#222222ec" d="M1300 0h100v100h-100z"/><path fill="none" d="M1400 0h100v100h-100z"/><path fill="#22222240" d="M1500 0h100v100h-100z"/><path fill="#22222276" d="M1600 0h100v100h-100z"/><path fill="none" d="M1700 0h100v100h-100zM1800 0h100v100h-100zM1900 0h100v100h-100zM0 100h100v100H0z"/><path fill="#222222fa" d="M100 100h100v100H100z"/><path fill="#222222bf" d="M200 100h100v100H200z"/><path fill="none" d="M300 100h100v100H300zM400 100h100v100H400zM500 100h100v100H500z"/><path fill="#22222280" d="M600 100h100v100H600z"/><path fill="none" d="M700 100h100v100H700zM800 100h100v100H800z"/><path fill="#222222bd" d="M900 100h100v100H900z"/><path fill="none" d="M1000 100h100v100h-100zM1100 100h100v100h-100z"/><path fill="#22222276" d="M1200 100h100v100h-100z"/><path fill="#222222c7" d="M1300 100h100v100h-100z"/><path fill="none" d="M1400 100h100v100h-100zM1500 100h100v100h-100z"/><path fill="#22222271" d="M1600 100h100v100h-100z"/><path fill="none" d="M1700 100h100v100h-100z"/><path fill="#22222245" d="M1800 100h100v100h-100z"/><path fill="none" d="M1900 100h100v100h-100zM0 200h100v100H0zM100 200h100v100H100z"/><path fill="#22222253" d="M200 200h100v100H200z"/><path fill="none" d="M300 200h100v100H300z"/><path fill="#22222243" d="M400 200h100v100H400z"/><path fill="none" d="M500 200h100v100H500zM600 200h100v100H600zM700 200h100v100H700zM800 200h100v100H800zM900 200h100v100H900zM1000 200h100v100h-100zM1100 200h100v100h-100zM1200 200h100v100h-100z"/><path fill="#2222227c" d="M1300 200h100v100h-100z"/><path fill="#22222238" d="M1400 200h100v100h-100z"/><path fill="none" d="M1500 200h100v100h-100zM1600 200h100v100h-100z"/><path fill="#222222fc" d="M1700 200h100v100h-100z"/><path fill="none" d="M1800 200h100v100h-100zM1900 200h100v100h-100zM0 300h100v100H0zM100 300h100v100H100zM200 300h100v100H200z"/><path fill="#222222a5" d="M300 300h100v100H300z"/><path fill="#222222d3" d="M400 300h100v100H400z"/><path fill="none" d="M500 300h100v100H500z"/><path fill="#222222a0" d="M600 300h100v100H600z"/><path fill="#222222b5" d="M700 300h100v100H700z"/><path fill="none" d="M800 300h100v100H800zM900 300h100v100H900z"/><path fill="#2222225f" d="M1000 300h100v100h-100z"/><path fill="none" d="M1100 300h100v100h-100zM1200 300h100v100h-100zM1300 300h100v100h-100zM1400 300h100v100h-100zM1500 300h100v100h-100z"/><path fill="#22222284" d="M1600 300h100v100h-100z"/><path fill="none" d="M1700 300h100v100h-100zM1800 300h100v100h-100zM1900 300h100v100h-100zM0 400h100v100H0z"/><path fill="#222222af" d="M100 400h100v100H100z"/><path fill="none" d="M200 400h100v100H200zM300 400h100v100H300z"/><path fill="#222222c9" d="M400 400h100v100H400z"/><path fill="none" d="M500 400h100v100H500zM600 400h100v100H600z"/><path fill="#222222dd" d="M700 400h100v100H700z"/><path fill="none" d="M800 400h100v100H800z"/><path fill="#2222227a" d="M900 400h100v100H900z"/><path fill="#222222b4" d="M1000 400h100v100h-100z"/><path fill="none" d="M1100 400h100v100h-100zM1200 400h100v100h-100z"/><path fill="#222222f9" d="M1300 400h100v100h-100z"/><path fill="none" d="M1400 400h100v100h-100zM1500 400h100v100h-100z"/><path fill="#22222265" d="M1600 400h100v100h-100z"/><path fill="#2222226b" d="M1700 400h100v100h-100z"/><path fill="#222222ad" d="M1800 400h100v100h-100z"/><path fill="none" d="M1900 400h100v100h-100zM0 500h100v100H0z"/><path fill="#22222283" d="M100 500h100v100H100z"/><path fill="#22222250" d="M200 500h100v100H200z"/><path fill="none" d="M300 500h100v100H300zM400 500h100v100H400zM500 500h100v100H500zM600 500h100v100H600z"/><path fill="#2222229d" d="M700 500h100v100H700z"/><path fill="#22222274" d="M800 500h100v100H800z"/><path fill="none" d="M900 500h100v100H900z"/><path fill="#22222212" d="M1000 500h100v100h-100z"/><path fill="#2222225b" d="M1100 500h100v100h-100z"/><path fill="none" d="M1200 500h100v100h-100zM1300 500h100v100h-100zM1400 500h100v100h-100zM1500 500h100v100h-100zM1600 500h100v100h-100zM1700 500h100v100h-100zM1800 500h100v100h-100z"/><path fill="#222222d7" d="M1900 500h100v100h-100z"/><path fill="none" d="M0 600h100v100H0zM100 600h100v100H100z"/><path fill="#22222253" d="M200 600h100v100H200z"/><path fill="none" d="M300 600h100v100H300z"/><path fill="#22222251" d="M400 600h100v100H400z"/><path fill="none" d="M500 600h100v100H500zM600 600h100v100H600zM700 600h100v100H700zM800 600h100v100H800zM900 600h100v100H900zM1000 600h100v100h-100zM1100 600h100v100h-100zM1200 600h100v100h-100z"/><path fill="#2222229c" d="M1300 600h100v100h-100z"/><path fill="none" d="M1400 600h100v100h-100z"/><path fill="#222222d2" d="M1500 600h100v100h-100z"/><path fill="#22222230" d="M1600 600h100v100h-100z"/><path fill="none" d="M1700 600h100v100h-100zM1800 600h100v100h-100zM1900 600h100v100h-100zM0 700h100v100H0z"/><path fill="#22222209" d="M100 700h100v100H100z"/><path fill="none" d="M200 700h100v100H200zM300 700h100v100H300zM400 700h100v100H400zM500 700h100v100H500z"/><path fill="#2222228f" d="M600 700h100v100H600z"/><path fill="none" d="M700 700h100v100H700zM800 700h100v100H800zM900 700h100v100H900zM1000 700h100v100h-100z"/><path fill="#222222ed" d="M1100 700h100v100h-100z"/><path fill="none" d="M1200 700h100v100h-100z"/><path fill="#222222bb" d="M1300 700h100v100h-100z"/><path fill="#22222268" d="M1400 700h100v100h-100z"/><path fill="none" d="M1500 700h100v100h-100z"/><path fill="#22222226" d="M1600 700h100v100h-100z"/><path fill="none" d="M1700 700h100v100h-100zM1800 700h100v100h-100zM1900 700h100v100h-100zM0 800h100v100H0zM100 800h100v100H100zM200 800h100v100H200zM300 800h100v100H300z"/><path fill="#222222d3" d="M400 800h100v100H400z"/><path fill="none" d="M500 800h100v100H500zM600 800h100v100H600z"/><path fill="#222222fb" d="M700 800h100v100H700z"/><path fill="none" d="M800 800h100v100H800zM900 800h100v100H900zM1000 800h100v100h-100zM1100 800h100v100h-100zM1200 800h100v100h-100z"/><path fill="#222222c5" d="M1300 800h100v100h-100z"/><path fill="none" d="M1400 800h100v100h-100zM1500 800h100v100h-100zM1600 800h100v100h-100zM1700 800h100v100h-100zM1800 800h100v100h-100zM1900 800h100v100h-100zM0 900h100v100H0zM100 900h100v100H100z"/><path fill="#22222268" d="M200 900h100v100H200z"/><path fill="none" d="M300 900h100v100H300zM400 900h100v100H400zM500 900h100v100H500zM600 900h100v100H600zM700 900h100v100H700zM800 900h100v100H800zM900 900h100v100H900zM1000 900h100v100h-100zM1100 900h100v100h-100zM1200 900h100v100h-100zM1300 900h100v100h-100zM1400 900h100v100h-100z"/><path fill="#22222209" d="M1500 900h100v100h-100z"/><path fill="none" d="M1600 900h100v100h-100zM1700 900h100v100h-100zM1800 900h100v100h-100zM1900 900h100v100h-100z"/></g><defs><radialGradient id="a"><stop offset="0" stop-color="#fff"/><stop offset="1" stop-color="#fff" stop-opacity="0"/></radialGradient></defs></svg>